<?xml version="1.0" encoding="UTF-8" standalone="no"?>
<!DOCTYPE svg PUBLIC "-//W3C//DTD SVG 1.1//EN" "http://www.w3.org/Graphics/SVG/1.1/DTD/svg11.dtd">
<svg xmlns="http://www.w3.org/2000/svg" version="1.1" viewBox="0 0 107 108">
<g stroke-width="2.00" fill="none" stroke-linecap="butt">
<path stroke="#63449f" vector-effect="non-scaling-stroke" d="
  M 106.36 108.00
  L 106.42 4.43
  Q 106.42 2.45 104.43 2.40
  Q 91.86 2.06 78.69 1.87
  C 73.23 1.80 66.37 2.34 60.18 2.13
  C 42.85 1.55 25.57 2.33 8.22 1.87
  C 6.38 1.82 4.43 1.04 2.48 0.84
  A 0.43 0.42 90.0 0 0 2.03 1.30
  Q 3.32 17.45 2.49 33.63
  C 1.39 55.24 4.02 77.65 2.23 99.25
  Q 1.82 104.23 3.39 108.02"
/>
<path stroke="#63449f" vector-effect="non-scaling-stroke" d="
  M 58.21 95.50
  C 59.64 96.17 60.98 96.37 62.36 95.30
  C 66.73 91.91 68.14 88.95 71.35 86.07
  C 77.73 80.35 83.66 73.71 89.86 67.72
  C 92.74 64.95 95.39 61.11 98.68 58.14
  A 1.27 0.82 -29.2 0 0 99.12 57.31
  L 99.07 54.00
  A 1.59 0.91 35.4 0 0 98.66 53.12
  Q 92.99 46.54 86.59 40.66
  Q 81.68 36.13 80.73 34.02
  Q 76.51 24.58 67.14 20.00
  A 1.41 0.75 37.1 0 0 66.19 19.85
  L 63.50 20.79"
/>
<path stroke="#b1a0d2" vector-effect="non-scaling-stroke" d="
  M 63.50 20.79
  L 54.94 12.31
  Q 53.34 10.72 51.76 12.31
  L 10.11 54.32
  Q 8.80 55.65 10.12 56.97
  L 52.63 99.46
  A 0.62 0.53 46.7 0 0 53.41 99.55
  L 58.21 95.50"
/>
<path stroke="#b0a1cc" vector-effect="non-scaling-stroke" d="
  M 63.50 20.79
  L 97.08 54.44
  A 1.49 1.49 0.0 0 1 97.08 56.54
  L 58.21 95.50"
/>
<path stroke="#b0a1cc" vector-effect="non-scaling-stroke" d="
  M 53.19 16.01
  Q 47.93 20.48 43.30 25.84
  A 0.46 0.45 37.8 0 0 43.39 26.51
  Q 53.41 33.17 63.69 26.49
  A 0.49 0.47 -39.0 0 0 63.78 25.75
  L 53.94 16.03
  A 0.55 0.55 -43.0 0 0 53.19 16.01"
/>
<path stroke="#b0a1cc" vector-effect="non-scaling-stroke" d="
  M 35.53 33.75
  Q 52.28 46.46 70.21 34.97
  Q 72.04 33.80 70.45 32.26
  L 66.85 28.77
  A 0.61 0.60 49.1 0 0 66.09 28.71
  Q 53.53 37.38 40.90 28.76
  A 0.62 0.62 39.7 0 0 40.12 28.83
  L 35.50 33.24
  A 0.34 0.33 -49.1 0 0 35.53 33.75"
/>
<path stroke="#b0a1cc" vector-effect="non-scaling-stroke" d="
  M 32.15 73.00
  C 40.53 62.07 40.66 48.11 31.87 37.58
  A 0.48 0.46 48.6 0 0 31.18 37.52
  L 26.56 42.12
  A 0.61 0.58 49.9 0 0 26.51 42.89
  Q 35.25 55.45 26.47 68.12
  A 0.61 0.60 -50.0 0 0 26.53 68.88
  L 30.76 73.11
  A 0.94 0.92 -48.9 0 0 32.15 73.00"
/>
<path stroke="#b0a1cc" vector-effect="non-scaling-stroke" d="
  M 74.54 38.24
  C 66.75 49.18 66.12 62.94 74.93 73.19
  A 0.53 0.47 47.4 0 0 75.66 73.26
  L 80.19 68.71
  A 0.70 0.59 51.4 0 0 80.21 67.90
  Q 71.67 55.33 80.38 42.96
  A 0.60 0.59 -49.9 0 0 80.32 42.20
  L 76.19 38.09
  A 1.09 1.08 -49.8 0 0 74.54 38.24"
/>
<path stroke="#b1a0d2" vector-effect="non-scaling-stroke" d="
  M 69.51 39.25
  C 60.17 44.57 47.37 45.70 37.99 39.50
  Q 36.87 38.76 37.50 39.94
  Q 45.86 55.60 37.51 71.15
  Q 37.29 71.57 37.72 71.35
  Q 53.52 63.12 69.26 71.45
  Q 69.69 71.68 69.46 71.25
  C 64.43 61.95 63.24 48.78 69.92 39.67
  Q 70.75 38.54 69.51 39.25"
/>
<path stroke="#b0a1cc" vector-effect="non-scaling-stroke" d="
  M 24.91 64.78
  C 28.18 58.91 29.13 50.28 24.09 45.29
  A 0.50 0.50 0.0 0 0 23.38 45.30
  L 13.55 55.14
  A 0.51 0.51 0.0 0 0 13.55 55.86
  L 22.74 65.09
  A 1.37 1.36 -52.9 0 0 24.91 64.78"
/>
<path stroke="#b0a1cc" vector-effect="non-scaling-stroke" d="
  M 83.35 45.27
  A 0.64 0.61 -50.9 0 0 82.40 45.39
  Q 76.15 54.80 82.12 65.07
  A 1.20 1.19 52.7 0 0 84.00 65.33
  L 93.44 55.88
  A 0.52 0.50 -45.4 0 0 93.45 55.16
  L 83.35 45.27"
/>
<path stroke="#b0a1cc" vector-effect="non-scaling-stroke" d="
  M 35.70 77.70
  L 40.11 82.42
  A 0.60 0.53 -39.8 0 0 40.88 82.44
  C 47.59 77.32 56.14 76.37 63.55 80.82
  Q 64.89 81.63 66.30 82.35
  A 0.68 0.65 -54.0 0 0 67.08 82.21
  L 71.20 77.85
  A 0.49 0.49 43.4 0 0 71.18 77.15
  C 60.91 68.08 46.33 68.95 35.80 76.98
  A 0.51 0.47 -39.6 0 0 35.70 77.70"
/>
<path stroke="#b0a1cc" vector-effect="non-scaling-stroke" d="
  M 63.76 84.76
  C 57.48 80.29 49.86 80.22 43.49 84.56
  A 0.73 0.73 -39.7 0 0 43.38 85.68
  L 53.14 95.45
  A 0.51 0.49 -45.4 0 0 53.85 95.43
  L 63.81 85.40
  A 0.43 0.42 -50.3 0 0 63.76 84.76"
/>
</g>
<path fill="#614599" d="
  M 0.00 0.00
  L 107.00 0.00
  L 107.00 108.00
  L 106.36 108.00
  L 106.42 4.43
  Q 106.42 2.45 104.43 2.40
  Q 91.86 2.06 78.69 1.87
  C 73.23 1.80 66.37 2.34 60.18 2.13
  C 42.85 1.55 25.57 2.33 8.22 1.87
  C 6.38 1.82 4.43 1.04 2.48 0.84
  A 0.43 0.42 90.0 0 0 2.03 1.30
  Q 3.32 17.45 2.49 33.63
  C 1.39 55.24 4.02 77.65 2.23 99.25
  Q 1.82 104.23 3.39 108.02
  L 0.00 108.00
  L 0.00 0.00
  Z"
/>
<path fill="#6442a5" d="
  M 106.36 108.00
  L 3.39 108.02
  Q 1.82 104.23 2.23 99.25
  C 4.02 77.65 1.39 55.24 2.49 33.63
  Q 3.32 17.45 2.03 1.30
  A 0.43 0.42 90.0 0 1 2.48 0.84
  C 4.43 1.04 6.38 1.82 8.22 1.87
  C 25.57 2.33 42.85 1.55 60.18 2.13
  C 66.37 2.34 73.23 1.80 78.69 1.87
  Q 91.86 2.06 104.43 2.40
  Q 106.42 2.45 106.42 4.43
  L 106.36 108.00
  Z
  M 58.21 95.50
  C 59.64 96.17 60.98 96.37 62.36 95.30
  C 66.73 91.91 68.14 88.95 71.35 86.07
  C 77.73 80.35 83.66 73.71 89.86 67.72
  C 92.74 64.95 95.39 61.11 98.68 58.14
  A 1.27 0.82 -29.2 0 0 99.12 57.31
  L 99.07 54.00
  A 1.59 0.91 35.4 0 0 98.66 53.12
  Q 92.99 46.54 86.59 40.66
  Q 81.68 36.13 80.73 34.02
  Q 76.51 24.58 67.14 20.00
  A 1.41 0.75 37.1 0 0 66.19 19.85
  L 63.50 20.79
  L 54.94 12.31
  Q 53.34 10.72 51.76 12.31
  L 10.11 54.32
  Q 8.80 55.65 10.12 56.97
  L 52.63 99.46
  A 0.62 0.53 46.7 0 0 53.41 99.55
  L 58.21 95.50
  Z"
/>
<path fill="#fefdfe" d="
  M 63.50 20.79
  L 97.08 54.44
  A 1.49 1.49 0.0 0 1 97.08 56.54
  L 58.21 95.50
  L 53.41 99.55
  A 0.62 0.53 46.7 0 1 52.63 99.46
  L 10.12 56.97
  Q 8.80 55.65 10.11 54.32
  L 51.76 12.31
  Q 53.34 10.72 54.94 12.31
  L 63.50 20.79
  Z
  M 53.19 16.01
  Q 47.93 20.48 43.30 25.84
  A 0.46 0.45 37.8 0 0 43.39 26.51
  Q 53.41 33.17 63.69 26.49
  A 0.49 0.47 -39.0 0 0 63.78 25.75
  L 53.94 16.03
  A 0.55 0.55 -43.0 0 0 53.19 16.01
  Z
  M 35.53 33.75
  Q 52.28 46.46 70.21 34.97
  Q 72.04 33.80 70.45 32.26
  L 66.85 28.77
  A 0.61 0.60 49.1 0 0 66.09 28.71
  Q 53.53 37.38 40.90 28.76
  A 0.62 0.62 39.7 0 0 40.12 28.83
  L 35.50 33.24
  A 0.34 0.33 -49.1 0 0 35.53 33.75
  Z
  M 32.15 73.00
  C 40.53 62.07 40.66 48.11 31.87 37.58
  A 0.48 0.46 48.6 0 0 31.18 37.52
  L 26.56 42.12
  A 0.61 0.58 49.9 0 0 26.51 42.89
  Q 35.25 55.45 26.47 68.12
  A 0.61 0.60 -50.0 0 0 26.53 68.88
  L 30.76 73.11
  A 0.94 0.92 -48.9 0 0 32.15 73.00
  Z
  M 74.54 38.24
  C 66.75 49.18 66.12 62.94 74.93 73.19
  A 0.53 0.47 47.4 0 0 75.66 73.26
  L 80.19 68.71
  A 0.70 0.59 51.4 0 0 80.21 67.90
  Q 71.67 55.33 80.38 42.96
  A 0.60 0.59 -49.9 0 0 80.32 42.20
  L 76.19 38.09
  A 1.09 1.08 -49.8 0 0 74.54 38.24
  Z
  M 69.51 39.25
  C 60.17 44.57 47.37 45.70 37.99 39.50
  Q 36.87 38.76 37.50 39.94
  Q 45.86 55.60 37.51 71.15
  Q 37.29 71.57 37.72 71.35
  Q 53.52 63.12 69.26 71.45
  Q 69.69 71.68 69.46 71.25
  C 64.43 61.95 63.24 48.78 69.92 39.67
  Q 70.75 38.54 69.51 39.25
  Z
  M 24.91 64.78
  C 28.18 58.91 29.13 50.28 24.09 45.29
  A 0.50 0.50 0.0 0 0 23.38 45.30
  L 13.55 55.14
  A 0.51 0.51 0.0 0 0 13.55 55.86
  L 22.74 65.09
  A 1.37 1.36 -52.9 0 0 24.91 64.78
  Z
  M 83.35 45.27
  A 0.64 0.61 -50.9 0 0 82.40 45.39
  Q 76.15 54.80 82.12 65.07
  A 1.20 1.19 52.7 0 0 84.00 65.33
  L 93.44 55.88
  A 0.52 0.50 -45.4 0 0 93.45 55.16
  L 83.35 45.27
  Z
  M 35.70 77.70
  L 40.11 82.42
  A 0.60 0.53 -39.8 0 0 40.88 82.44
  C 47.59 77.32 56.14 76.37 63.55 80.82
  Q 64.89 81.63 66.30 82.35
  A 0.68 0.65 -54.0 0 0 67.08 82.21
  L 71.20 77.85
  A 0.49 0.49 43.4 0 0 71.18 77.15
  C 60.91 68.08 46.33 68.95 35.80 76.98
  A 0.51 0.47 -39.6 0 0 35.70 77.70
  Z
  M 63.76 84.76
  C 57.48 80.29 49.86 80.22 43.49 84.56
  A 0.73 0.73 -39.7 0 0 43.38 85.68
  L 53.14 95.45
  A 0.51 0.49 -45.4 0 0 53.85 95.43
  L 63.81 85.40
  A 0.43 0.42 -50.3 0 0 63.76 84.76
  Z"
/>
<path fill="#614599" d="
  M 53.94 16.03
  L 63.78 25.75
  A 0.49 0.47 -39.0 0 1 63.69 26.49
  Q 53.41 33.17 43.39 26.51
  A 0.46 0.45 37.8 0 1 43.30 25.84
  Q 47.93 20.48 53.19 16.01
  A 0.55 0.55 -43.0 0 1 53.94 16.03
  Z"
/>
<path fill="#614599" d="
  M 58.21 95.50
  L 97.09 56.55
  A 1.49 1.49 0.0 0 0 97.08 54.44
  L 63.50 20.79
  L 66.19 19.85
  A 1.41 0.75 37.1 0 1 67.14 20.00
  Q 76.51 24.58 80.73 34.02
  Q 81.68 36.13 86.59 40.66
  Q 92.99 46.54 98.66 53.12
  A 1.59 0.91 35.4 0 1 99.07 54.00
  L 99.12 57.31
  A 1.27 0.82 -29.2 0 1 98.68 58.14
  C 95.39 61.11 92.74 64.95 89.86 67.72
  C 83.66 73.71 77.73 80.35 71.35 86.07
  C 68.14 88.95 66.73 91.91 62.36 95.30
  C 60.98 96.37 59.64 96.17 58.21 95.50
  Z"
/>
<path fill="#614599" d="
  M 35.53 33.75
  A 0.34 0.33 -49.1 0 1 35.50 33.24
  L 40.12 28.83
  A 0.62 0.62 39.7 0 1 40.90 28.76
  Q 53.53 37.38 66.09 28.71
  A 0.61 0.60 49.1 0 1 66.85 28.77
  L 70.45 32.26
  Q 72.04 33.80 70.21 34.97
  Q 52.28 46.46 35.53 33.75
  Z"
/>
<path fill="#614599" d="
  M 32.15 73.00
  A 0.94 0.92 -48.9 0 1 30.76 73.11
  L 26.53 68.88
  A 0.61 0.60 -50.0 0 1 26.47 68.12
  Q 35.25 55.45 26.51 42.89
  A 0.61 0.58 49.9 0 1 26.56 42.12
  L 31.18 37.52
  A 0.48 0.46 48.6 0 1 31.87 37.58
  C 40.66 48.11 40.53 62.07 32.15 73.00
  Z"
/>
<path fill="#614599" d="
  M 74.54 38.24
  A 1.09 1.08 -49.8 0 1 76.19 38.09
  L 80.32 42.20
  A 0.60 0.59 -49.9 0 1 80.38 42.96
  Q 71.67 55.33 80.21 67.90
  A 0.70 0.59 51.4 0 1 80.19 68.71
  L 75.66 73.26
  A 0.53 0.47 47.4 0 1 74.93 73.19
  C 66.12 62.94 66.75 49.18 74.54 38.24
  Z"
/>
<path fill="#6442a5" d="
  M 37.99 39.50
  C 47.37 45.70 60.17 44.57 69.51 39.25
  Q 70.75 38.54 69.92 39.67
  C 63.24 48.78 64.43 61.95 69.46 71.25
  Q 69.69 71.68 69.26 71.45
  Q 53.52 63.12 37.72 71.35
  Q 37.29 71.57 37.51 71.15
  Q 45.86 55.60 37.50 39.94
  Q 36.87 38.76 37.99 39.50
  Z"
/>
<path fill="#614599" d="
  M 24.91 64.78
  A 1.37 1.36 -52.9 0 1 22.74 65.09
  L 13.55 55.86
  A 0.51 0.51 -90.0 0 1 13.55 55.14
  L 23.38 45.30
  A 0.50 0.50 0.0 0 1 24.08 45.30
  C 29.13 50.28 28.18 58.91 24.91 64.78
  Z"
/>
<path fill="#614599" d="
  M 83.35 45.27
  L 93.45 55.16
  A 0.52 0.50 -45.4 0 1 93.44 55.88
  L 84.00 65.33
  A 1.20 1.19 52.7 0 1 82.12 65.07
  Q 76.15 54.80 82.40 45.39
  A 0.64 0.61 -50.9 0 1 83.35 45.27
  Z"
/>
<path fill="#614599" d="
  M 35.70 77.70
  A 0.51 0.47 -39.6 0 1 35.80 76.98
  C 46.33 68.95 60.91 68.08 71.18 77.15
  A 0.49 0.49 43.4 0 1 71.20 77.85
  L 67.08 82.21
  A 0.68 0.65 -54.0 0 1 66.30 82.35
  Q 64.89 81.63 63.55 80.82
  C 56.14 76.37 47.59 77.32 40.88 82.44
  A 0.60 0.53 -39.8 0 1 40.11 82.42
  L 35.70 77.70
  Z"
/>
<path fill="#614599" d="
  M 43.49 84.56
  C 49.86 80.22 57.48 80.29 63.76 84.76
  A 0.43 0.42 -50.3 0 1 63.81 85.40
  L 53.85 95.43
  A 0.51 0.49 -45.4 0 1 53.14 95.45
  L 43.38 85.68
  A 0.73 0.73 -39.7 0 1 43.49 84.56
  Z"
/>
</svg>
